<?xml version="1.0" encoding="utf-8"?>
<!-- Generator: Adobe Illustrator 16.0.0, SVG Export Plug-In . SVG Version: 6.00 Build 0)  -->
<!DOCTYPE svg PUBLIC "-//W3C//DTD SVG 1.1//EN" "http://www.w3.org/Graphics/SVG/1.1/DTD/svg11.dtd">
<svg version="1.1" id="Layer_1" xmlns="http://www.w3.org/2000/svg" xmlns:xlink="http://www.w3.org/1999/xlink" x="0px" y="0px"
	 width="300px" height="500px" viewBox="0 0 300 500" enable-background="new 0 0 300 500" xml:space="preserve">
<rect x="0" fill="#92DADD" width="300" height="500"/>
<rect x="0" y="209.243" fill="#B2B232" width="300" height="290.757"/>
<g>
	<rect x="424.105" y="200.891" fill="#898989" width="36.005" height="56.552"/>
	<rect x="427.774" y="204.448" fill="#EAED98" width="4.771" height="4.771"/>
	<rect x="435.297" y="204.448" fill="#EAED98" width="4.771" height="4.771"/>
	<rect x="445.813" y="200.891" fill="#B0AFAA" width="14.297" height="56.552"/>
	<rect x="443.108" y="204.448" fill="#636464" width="4.771" height="4.771"/>
	<rect x="451.064" y="204.448" fill="#EAED98" width="4.771" height="4.771"/>
	<rect x="427.774" y="212.702" fill="#EAED98" width="4.771" height="4.771"/>
	<rect x="435.297" y="212.702" fill="#EAED98" width="4.771" height="4.771"/>
	<rect x="443.108" y="212.702" fill="#EAED98" width="4.771" height="4.771"/>
	<rect x="451.063" y="212.702" fill="#636464" width="4.771" height="4.771"/>
	<rect x="427.774" y="220.771" fill="#636464" width="4.771" height="4.771"/>
	<rect x="435.297" y="220.771" fill="#636464" width="4.771" height="4.771"/>
	<rect x="443.108" y="220.771" fill="#EAED98" width="4.771" height="4.771"/>
	<rect x="451.063" y="220.771" fill="#EAED98" width="4.771" height="4.771"/>
	<rect x="427.774" y="228.615" fill="#EAED98" width="4.771" height="4.771"/>
	<rect x="435.297" y="228.615" fill="#636464" width="4.771" height="4.771"/>
	<rect x="443.108" y="228.615" fill="#EAED98" width="4.771" height="4.771"/>
	<rect x="451.063" y="228.615" fill="#EAED98" width="4.771" height="4.771"/>
	<rect x="427.774" y="236.458" fill="#EAED98" width="4.771" height="4.771"/>
	<rect x="435.297" y="236.458" fill="#EAED98" width="4.771" height="4.771"/>
	<rect x="443.108" y="236.458" fill="#636464" width="4.771" height="4.771"/>
	<rect x="451.063" y="236.458" fill="#636464" width="4.771" height="4.771"/>
	<rect x="427.774" y="244.302" fill="#636464" width="4.771" height="4.771"/>
	<rect x="435.297" y="244.302" fill="#EAED98" width="4.771" height="4.771"/>
	<rect x="443.108" y="244.302" fill="#EAED98" width="4.771" height="4.771"/>
	<rect x="451.063" y="244.302" fill="#636464" width="4.771" height="4.771"/>
</g>
<g>
	<rect x="473.235" y="128.237" fill="#898989" width="36.005" height="56.553"/>
	<rect x="476.904" y="131.794" fill="#636464" width="4.771" height="4.771"/>
	<rect x="484.426" y="131.794" fill="#636464" width="4.771" height="4.771"/>
	<rect x="494.943" y="128.237" fill="#B0AFAA" width="14.297" height="56.553"/>
	<rect x="492.238" y="131.794" fill="#EAED98" width="4.771" height="4.771"/>
	<rect x="500.194" y="131.794" fill="#636464" width="4.771" height="4.771"/>
	<rect x="476.904" y="140.048" fill="#EAED98" width="4.771" height="4.771"/>
	<rect x="484.426" y="140.048" fill="#EAED98" width="4.771" height="4.771"/>
	<rect x="492.238" y="140.048" fill="#636464" width="4.771" height="4.771"/>
	<rect x="500.193" y="140.048" fill="#EAED98" width="4.771" height="4.771"/>
	<rect x="476.904" y="148.118" fill="#EAED98" width="4.771" height="4.771"/>
	<rect x="484.426" y="148.118" fill="#EAED98" width="4.771" height="4.771"/>
	<rect x="492.238" y="148.118" fill="#636464" width="4.771" height="4.771"/>
	<rect x="500.193" y="148.118" fill="#EAED98" width="4.771" height="4.771"/>
	<rect x="476.904" y="155.962" fill="#EAED98" width="4.771" height="4.771"/>
	<rect x="484.426" y="155.962" fill="#636464" width="4.771" height="4.771"/>
	<rect x="492.238" y="155.962" fill="#EAED98" width="4.771" height="4.771"/>
	<rect x="500.193" y="155.962" fill="#636464" width="4.771" height="4.771"/>
	<rect x="476.904" y="163.805" fill="#636464" width="4.771" height="4.771"/>
	<rect x="484.426" y="163.805" fill="#EAED98" width="4.771" height="4.771"/>
	<rect x="492.238" y="163.805" fill="#636464" width="4.771" height="4.771"/>
	<rect x="500.193" y="163.805" fill="#636464" width="4.771" height="4.771"/>
	<rect x="476.904" y="171.648" fill="#636464" width="4.771" height="4.771"/>
	<rect x="484.426" y="171.648" fill="#636464" width="4.771" height="4.771"/>
	<rect x="492.238" y="171.648" fill="#636464" width="4.771" height="4.771"/>
	<rect x="500.193" y="171.648" fill="#EAED98" width="4.771" height="4.771"/>
</g>
<g>
	<rect x="121.566" y="173.173" fill="#898989" width="56.869" height="36.004"/>
	<rect x="164.138" y="173.173" fill="#898989" width="14.297" height="36.004"/>
	<rect x="167.641" y="176.841" fill="#636464" width="4.798" height="4.771"/>
	<rect x="167.641" y="184.365" fill="#636464" width="4.798" height="4.771"/>
	<rect x="167.641" y="192.175" fill="#636464" width="4.798" height="4.771"/>
	<rect x="167.641" y="200.131" fill="#EAED98" width="4.798" height="4.771"/>
	<rect x="159.34" y="176.841" fill="#636464" width="4.797" height="4.771"/>
	<rect x="159.34" y="184.365" fill="#636464" width="4.797" height="4.771"/>
	<rect x="159.34" y="192.175" fill="#636464" width="4.797" height="4.771"/>
	<rect x="159.34" y="200.131" fill="#EAED98" width="4.797" height="4.771"/>
	<rect x="151.226" y="176.841" fill="#636464" width="4.796" height="4.771"/>
	<rect x="151.226" y="184.365" fill="#636464" width="4.796" height="4.771"/>
	<rect x="151.226" y="192.175" fill="#EAED98" width="4.796" height="4.771"/>
	<rect x="151.226" y="200.131" fill="#EAED98" width="4.796" height="4.771"/>
	<rect x="143.338" y="176.841" fill="#636464" width="4.797" height="4.771"/>
	<rect x="143.338" y="184.365" fill="#636464" width="4.797" height="4.771"/>
	<rect x="143.338" y="192.175" fill="#EAED98" width="4.797" height="4.771"/>
	<rect x="143.338" y="200.131" fill="#EAED98" width="4.797" height="4.771"/>
	<rect x="135.45" y="176.841" fill="#636464" width="4.798" height="4.771"/>
	<rect x="135.45" y="184.365" fill="#636464" width="4.798" height="4.771"/>
	<rect x="135.45" y="192.175" fill="#EAED98" width="4.798" height="4.771"/>
	<rect x="135.45" y="200.131" fill="#EAED98" width="4.798" height="4.771"/>
	<rect x="127.564" y="176.841" fill="#636464" width="4.798" height="4.771"/>
	<rect x="127.564" y="184.365" fill="#EAED98" width="4.798" height="4.771"/>
	<rect x="127.564" y="192.175" fill="#636464" width="4.798" height="4.771"/>
	<rect x="127.564" y="200.131" fill="#EAED98" width="4.798" height="4.771"/>
</g>
<g>
	<g>
		<rect x="14.421" y="152.699" fill="#898989" width="36.004" height="56.553"/>
		<rect x="18.09" y="156.256" fill="#EAED98" width="4.771" height="4.771"/>
		<rect x="25.614" y="156.256" fill="#636464" width="4.771" height="4.771"/>
		<rect x="33.424" y="156.256" fill="#EAED98" width="4.771" height="4.771"/>
		<rect x="43.99" y="152.661" fill="#898989" width="6.356" height="56.592"/>
		<rect x="41.379" y="156.256" fill="#636464" width="4.771" height="4.771"/>
		<rect x="18.09" y="164.51" fill="#EAED98" width="4.771" height="4.771"/>
		<rect x="25.614" y="164.51" fill="#EAED98" width="4.771" height="4.771"/>
		<rect x="33.424" y="164.51" fill="#EAED98" width="4.771" height="4.771"/>
		<rect x="41.379" y="164.51" fill="#EAED98" width="4.771" height="4.771"/>
		<rect x="18.09" y="172.58" fill="#EAED98" width="4.771" height="4.771"/>
		<rect x="25.614" y="172.58" fill="#EAED98" width="4.771" height="4.771"/>
		<rect x="33.424" y="172.58" fill="#636464" width="4.771" height="4.771"/>
		<rect x="41.379" y="172.58" fill="#EAED98" width="4.771" height="4.771"/>
		<rect x="18.09" y="180.424" fill="#636464" width="4.771" height="4.771"/>
		<rect x="25.614" y="180.424" fill="#636464" width="4.771" height="4.771"/>
		<rect x="33.424" y="180.424" fill="#EAED98" width="4.771" height="4.771"/>
		<rect x="41.379" y="180.424" fill="#EAED98" width="4.771" height="4.771"/>
		<rect x="18.09" y="188.267" fill="#EAED98" width="4.771" height="4.771"/>
		<rect x="25.614" y="188.267" fill="#636464" width="4.771" height="4.771"/>
		<rect x="33.424" y="188.267" fill="#636464" width="4.771" height="4.771"/>
		<rect x="41.379" y="188.267" fill="#EAED98" width="4.771" height="4.771"/>
		<rect x="18.09" y="196.11" fill="#EAED98" width="4.771" height="4.771"/>
		<rect x="25.614" y="196.11" fill="#EAED98" width="4.771" height="4.771"/>
		<rect x="33.424" y="196.11" fill="#EAED98" width="4.771" height="4.771"/>
		<rect x="41.379" y="196.11" fill="#636464" width="4.771" height="4.771"/>
	</g>
	<g>
		<rect x="58.739" y="126.775" fill="#898989" width="36.005" height="82.458"/>
		<rect x="88.384" y="126.775" fill="#898989" width="6.358" height="82.458"/>
		<rect x="85.998" y="170.521" fill="#EAED98" width="4.771" height="4.798"/>
		<rect x="78.475" y="170.521" fill="#EAED98" width="4.771" height="4.798"/>
		<rect x="70.665" y="170.521" fill="#636464" width="4.771" height="4.798"/>
		<rect x="62.709" y="170.521" fill="#EAED98" width="4.771" height="4.798"/>
		<rect x="85.998" y="162.22" fill="#EAED98" width="4.771" height="4.797"/>
		<rect x="78.475" y="162.22" fill="#EAED98" width="4.771" height="4.797"/>
		<rect x="70.664" y="162.22" fill="#EAED98" width="4.771" height="4.797"/>
		<rect x="62.709" y="162.22" fill="#EAED98" width="4.771" height="4.797"/>
		<rect x="85.998" y="154.106" fill="#636464" width="4.771" height="4.796"/>
		<rect x="78.475" y="154.106" fill="#636464" width="4.771" height="4.796"/>
		<rect x="70.664" y="154.106" fill="#636464" width="4.771" height="4.796"/>
		<rect x="62.709" y="154.106" fill="#636464" width="4.771" height="4.796"/>
		<rect x="85.998" y="146.219" fill="#636464" width="4.771" height="4.797"/>
		<rect x="78.475" y="146.219" fill="#EAED98" width="4.771" height="4.797"/>
		<rect x="70.664" y="146.219" fill="#636464" width="4.771" height="4.797"/>
		<rect x="62.709" y="146.219" fill="#EAED98" width="4.771" height="4.797"/>
		<rect x="85.998" y="138.331" fill="#EAED98" width="4.771" height="4.797"/>
		<rect x="78.475" y="138.331" fill="#636464" width="4.771" height="4.797"/>
		<rect x="70.664" y="138.331" fill="#EAED98" width="4.771" height="4.797"/>
		<rect x="62.709" y="138.331" fill="#EAED98" width="4.771" height="4.797"/>
		<rect x="85.998" y="130.444" fill="#EAED98" width="4.771" height="4.798"/>
		<rect x="78.475" y="130.444" fill="#EAED98" width="4.771" height="4.798"/>
		<rect x="70.664" y="130.444" fill="#636464" width="4.771" height="4.798"/>
		<rect x="62.709" y="130.444" fill="#636464" width="4.771" height="4.798"/>
		<rect x="85.999" y="186.368" fill="#636464" width="4.771" height="4.797"/>
		<rect x="78.475" y="186.368" fill="#EAED98" width="4.771" height="4.797"/>
		<rect x="70.665" y="186.368" fill="#636464" width="4.771" height="4.797"/>
		<rect x="62.71" y="186.368" fill="#EAED98" width="4.771" height="4.797"/>
		<rect x="85.999" y="178.48" fill="#EAED98" width="4.771" height="4.798"/>
		<rect x="78.475" y="178.48" fill="#636464" width="4.771" height="4.798"/>
		<rect x="70.665" y="178.48" fill="#EAED98" width="4.771" height="4.798"/>
		<rect x="62.71" y="178.48" fill="#EAED98" width="4.771" height="4.798"/>
	</g>
	<g>
		<g>
			<rect x="249.575" y="152.588" fill="#898989" width="36.004" height="56.553"/>
			<rect x="277.139" y="156.145" fill="#EAED98" width="4.771" height="4.771"/>
			<rect x="269.616" y="156.145" fill="#636464" width="4.771" height="4.771"/>
			<rect x="261.805" y="156.145" fill="#EAED98" width="4.771" height="4.771"/>
			<rect x="249.653" y="152.55" fill="#898989" width="6.357" height="56.592"/>
			<rect x="253.851" y="156.145" fill="#636464" width="4.771" height="4.771"/>
			<rect x="277.139" y="164.399" fill="#EAED98" width="4.771" height="4.771"/>
			<rect x="269.616" y="164.399" fill="#EAED98" width="4.771" height="4.771"/>
			<rect x="261.805" y="164.399" fill="#EAED98" width="4.771" height="4.771"/>
			<rect x="253.851" y="164.399" fill="#EAED98" width="4.771" height="4.771"/>
			<rect x="277.139" y="172.469" fill="#EAED98" width="4.771" height="4.771"/>
			<rect x="269.616" y="172.469" fill="#EAED98" width="4.771" height="4.771"/>
			<rect x="261.805" y="172.469" fill="#636464" width="4.771" height="4.771"/>
			<rect x="253.851" y="172.469" fill="#EAED98" width="4.771" height="4.771"/>
			<rect x="277.139" y="180.313" fill="#636464" width="4.771" height="4.771"/>
			<rect x="269.616" y="180.313" fill="#636464" width="4.771" height="4.771"/>
			<rect x="261.805" y="180.313" fill="#EAED98" width="4.771" height="4.771"/>
			<rect x="253.851" y="180.313" fill="#EAED98" width="4.771" height="4.771"/>
			<rect x="277.139" y="188.156" fill="#EAED98" width="4.771" height="4.771"/>
			<rect x="269.616" y="188.156" fill="#636464" width="4.771" height="4.771"/>
			<rect x="261.805" y="188.156" fill="#636464" width="4.771" height="4.771"/>
			<rect x="253.851" y="188.156" fill="#EAED98" width="4.771" height="4.771"/>
			<rect x="277.139" y="195.999" fill="#EAED98" width="4.771" height="4.771"/>
			<rect x="269.616" y="195.999" fill="#EAED98" width="4.771" height="4.771"/>
			<rect x="261.805" y="195.999" fill="#EAED98" width="4.771" height="4.771"/>
			<rect x="253.851" y="195.999" fill="#636464" width="4.771" height="4.771"/>
		</g>
		<g>
			<rect x="205.258" y="126.665" fill="#898989" width="36.004" height="82.458"/>
			<rect x="205.258" y="126.665" fill="#898989" width="6.358" height="82.458"/>
			<rect x="209.232" y="170.411" fill="#EAED98" width="4.771" height="4.798"/>
			<rect x="216.754" y="170.411" fill="#EAED98" width="4.771" height="4.798"/>
			<rect x="224.565" y="170.411" fill="#636464" width="4.771" height="4.798"/>
			<rect x="232.521" y="170.411" fill="#EAED98" width="4.771" height="4.798"/>
			<rect x="209.232" y="162.109" fill="#EAED98" width="4.771" height="4.797"/>
			<rect x="216.754" y="162.109" fill="#EAED98" width="4.771" height="4.797"/>
			<rect x="224.566" y="162.109" fill="#EAED98" width="4.771" height="4.797"/>
			<rect x="232.521" y="162.109" fill="#EAED98" width="4.771" height="4.797"/>
			<rect x="209.232" y="153.996" fill="#636464" width="4.771" height="4.796"/>
			<rect x="216.754" y="153.996" fill="#636464" width="4.771" height="4.796"/>
			<rect x="224.566" y="153.996" fill="#636464" width="4.771" height="4.796"/>
			<rect x="232.521" y="153.996" fill="#636464" width="4.771" height="4.796"/>
			<rect x="209.232" y="146.108" fill="#636464" width="4.771" height="4.797"/>
			<rect x="216.754" y="146.108" fill="#EAED98" width="4.771" height="4.797"/>
			<rect x="224.566" y="146.108" fill="#636464" width="4.771" height="4.797"/>
			<rect x="232.521" y="146.108" fill="#EAED98" width="4.771" height="4.797"/>
			<rect x="209.232" y="138.22" fill="#EAED98" width="4.771" height="4.797"/>
			<rect x="216.754" y="138.22" fill="#636464" width="4.771" height="4.797"/>
			<rect x="224.566" y="138.22" fill="#EAED98" width="4.771" height="4.797"/>
			<rect x="232.521" y="138.22" fill="#EAED98" width="4.771" height="4.797"/>
			<rect x="209.232" y="130.333" fill="#EAED98" width="4.771" height="4.798"/>
			<rect x="216.754" y="130.333" fill="#EAED98" width="4.771" height="4.798"/>
			<rect x="224.566" y="130.333" fill="#636464" width="4.771" height="4.798"/>
			<rect x="232.521" y="130.333" fill="#636464" width="4.771" height="4.798"/>
			<rect x="209.231" y="186.257" fill="#636464" width="4.771" height="4.797"/>
			<rect x="216.754" y="186.257" fill="#EAED98" width="4.771" height="4.797"/>
			<rect x="224.565" y="186.257" fill="#636464" width="4.771" height="4.797"/>
			<rect x="232.52" y="186.257" fill="#EAED98" width="4.771" height="4.797"/>
			<rect x="209.231" y="178.37" fill="#EAED98" width="4.771" height="4.798"/>
			<rect x="216.754" y="178.37" fill="#636464" width="4.771" height="4.798"/>
			<rect x="224.565" y="178.37" fill="#EAED98" width="4.771" height="4.798"/>
			<rect x="232.52" y="178.37" fill="#EAED98" width="4.771" height="4.798"/>
		</g>
	</g>
</g>
<g opacity="0.5">
	<g>
		<g>
			<line fill="none" stroke="#FFFFFF" stroke-miterlimit="10" x1="300.772" y1="1.585" x2="300" y2="2.871"/>
			
				<line fill="none" stroke="#FFFFFF" stroke-miterlimit="10" stroke-dasharray="3.0057,3.0057" x1="298.453" y1="5.449" x2="2.317" y2="499.01"/>
			<line fill="none" stroke="#FFFFFF" stroke-miterlimit="10" x1="1.544" y1="500.299" x2="0.772" y2="501.585"/>
		</g>
	</g>
	<g>
		<g>
			<line fill="none" stroke="#FFFFFF" stroke-miterlimit="10" x1="249.739" y1="-29.369" x2="248.967" y2="-28.083"/>
			
				<line fill="none" stroke="#FFFFFF" stroke-miterlimit="10" stroke-dasharray="3.0057,3.0057" x1="247.42" y1="-25.505" x2="-48.717" y2="468.057"/>
			<line fill="none" stroke="#FFFFFF" stroke-miterlimit="10" x1="-49.49" y1="469.346" x2="-50.261" y2="470.632"/>
		</g>
	</g>
	<g>
		<g>
			<line fill="none" stroke="#FFFFFF" stroke-miterlimit="10" x1="204.415" y1="-73.163" x2="203.644" y2="-71.876"/>
			
				<line fill="none" stroke="#FFFFFF" stroke-miterlimit="10" stroke-dasharray="3.0057,3.0057" x1="202.097" y1="-69.299" x2="-94.04" y2="424.263"/>
			<line fill="none" stroke="#FFFFFF" stroke-miterlimit="10" x1="-94.813" y1="425.552" x2="-95.585" y2="426.838"/>
		</g>
	</g>
	<g>
		<g>
			<line fill="none" stroke="#FFFFFF" stroke-miterlimit="10" x1="165.325" y1="-128.016" x2="164.554" y2="-126.73"/>
			
				<line fill="none" stroke="#FFFFFF" stroke-miterlimit="10" stroke-dasharray="3.0057,3.0057" x1="163.007" y1="-124.152" x2="-133.13" y2="369.409"/>
			<line fill="none" stroke="#FFFFFF" stroke-miterlimit="10" x1="-133.903" y1="370.698" x2="-134.675" y2="371.984"/>
		</g>
	</g>
	<g>
		<g>
			<line fill="none" stroke="#FFFFFF" stroke-miterlimit="10" x1="357.463" y1="33.533" x2="356.692" y2="34.819"/>
			
				<line fill="none" stroke="#FFFFFF" stroke-miterlimit="10" stroke-dasharray="3.0057,3.0057" x1="355.145" y1="37.397" x2="59.008" y2="530.958"/>
			<line fill="none" stroke="#FFFFFF" stroke-miterlimit="10" x1="58.235" y1="532.247" x2="57.463" y2="533.533"/>
		</g>
	</g>
	<g>
		<g>
			<line fill="none" stroke="#FFFFFF" stroke-miterlimit="10" x1="469.111" y1="94.788" x2="468.339" y2="96.074"/>
			
				<line fill="none" stroke="#FFFFFF" stroke-miterlimit="10" stroke-dasharray="3.0057,3.0057" x1="466.792" y1="98.652" x2="170.656" y2="592.213"/>
			<line fill="none" stroke="#FFFFFF" stroke-miterlimit="10" x1="169.882" y1="593.502" x2="169.111" y2="594.788"/>
		</g>
	</g>
	<g>
		<g>
			<line fill="none" stroke="#FFFFFF" stroke-miterlimit="10" x1="428.482" y1="36.278" x2="427.71" y2="37.564"/>
			
				<line fill="none" stroke="#FFFFFF" stroke-miterlimit="10" stroke-dasharray="3.0057,3.0057" x1="426.163" y1="40.142" x2="130.027" y2="533.703"/>
			<line fill="none" stroke="#FFFFFF" stroke-miterlimit="10" x1="129.254" y1="534.992" x2="128.482" y2="536.278"/>
		</g>
	</g>
</g>
<g opacity="0.5">
	<g>
		<g>
			<line fill="none" stroke="#FFFFFF" stroke-miterlimit="10" x1="1.681" y1="1.585" x2="2.453" y2="2.871"/>
			
				<line fill="none" stroke="#FFFFFF" stroke-miterlimit="10" stroke-dasharray="3.0057,3.0057" x1="3.999" y1="5.449" x2="300.136" y2="499.01"/>
			<line fill="none" stroke="#FFFFFF" stroke-miterlimit="10" x1="300.909" y1="500.299" x2="301.681" y2="501.585"/>
		</g>
	</g>
	<g>
		<g>
			<line fill="none" stroke="#FFFFFF" stroke-miterlimit="10" x1="52.714" y1="-29.369" x2="53.486" y2="-28.083"/>
			
				<line fill="none" stroke="#FFFFFF" stroke-miterlimit="10" stroke-dasharray="3.0057,3.0057" x1="55.032" y1="-25.505" x2="351.169" y2="468.057"/>
			<line fill="none" stroke="#FFFFFF" stroke-miterlimit="10" x1="351.943" y1="469.346" x2="352.714" y2="470.632"/>
		</g>
	</g>
	<g>
		<g>
			<line fill="none" stroke="#FFFFFF" stroke-miterlimit="10" x1="98.037" y1="-73.163" x2="98.809" y2="-71.876"/>
			
				<line fill="none" stroke="#FFFFFF" stroke-miterlimit="10" stroke-dasharray="3.0057,3.0057" x1="100.356" y1="-69.299" x2="396.492" y2="424.263"/>
			<line fill="none" stroke="#FFFFFF" stroke-miterlimit="10" x1="397.266" y1="425.552" x2="398.037" y2="426.838"/>
		</g>
	</g>
	<g>
		<g>
			<line fill="none" stroke="#FFFFFF" stroke-miterlimit="10" x1="137.127" y1="-128.016" x2="137.899" y2="-126.73"/>
			
				<line fill="none" stroke="#FFFFFF" stroke-miterlimit="10" stroke-dasharray="3.0057,3.0057" x1="139.446" y1="-124.152" x2="435.582" y2="369.409"/>
			<line fill="none" stroke="#FFFFFF" stroke-miterlimit="10" x1="436.356" y1="370.698" x2="437.127" y2="371.984"/>
		</g>
	</g>
	<g>
		<g>
			<line fill="none" stroke="#FFFFFF" stroke-miterlimit="10" x1="-55.01" y1="33.533" x2="-54.239" y2="34.819"/>
			
				<line fill="none" stroke="#FFFFFF" stroke-miterlimit="10" stroke-dasharray="3.0057,3.0057" x1="-52.692" y1="37.397" x2="243.445" y2="530.958"/>
			<line fill="none" stroke="#FFFFFF" stroke-miterlimit="10" x1="244.218" y1="532.247" x2="244.99" y2="533.533"/>
		</g>
	</g>
	<g>
		<g>
			<line fill="none" stroke="#FFFFFF" stroke-miterlimit="10" x1="-166.658" y1="94.788" x2="-165.886" y2="96.074"/>
			
				<line fill="none" stroke="#FFFFFF" stroke-miterlimit="10" stroke-dasharray="3.0057,3.0057" x1="-164.34" y1="98.652" x2="131.797" y2="592.213"/>
			<line fill="none" stroke="#FFFFFF" stroke-miterlimit="10" x1="132.57" y1="593.502" x2="133.342" y2="594.788"/>
		</g>
	</g>
	<g>
		<g>
			<line fill="none" stroke="#FFFFFF" stroke-miterlimit="10" x1="-126.029" y1="36.278" x2="-125.257" y2="37.564"/>
			
				<line fill="none" stroke="#FFFFFF" stroke-miterlimit="10" stroke-dasharray="3.0057,3.0057" x1="-123.711" y1="40.142" x2="172.426" y2="533.703"/>
			<line fill="none" stroke="#FFFFFF" stroke-miterlimit="10" x1="173.199" y1="534.992" x2="173.971" y2="536.278"/>
		</g>
	</g>
</g>
</svg>
