<?xml version="1.0" encoding="utf-8"?>
<!-- Generator: Adobe Illustrator 16.0.0, SVG Export Plug-In . SVG Version: 6.00 Build 0)  -->
<!DOCTYPE svg PUBLIC "-//W3C//DTD SVG 1.1//EN" "http://www.w3.org/Graphics/SVG/1.1/DTD/svg11.dtd">
<svg version="1.1" id="Layer_1" xmlns="http://www.w3.org/2000/svg" xmlns:xlink="http://www.w3.org/1999/xlink" x="0px" y="0px"
	 width="300px" height="500px" viewBox="0 0 300 500" enable-background="new 0 0 300 500" xml:space="preserve">
<rect fill="#FFCC6B" width="300" height="500"/>
<rect y="209.243" fill="#D8BC58" width="300" height="290.757"/>
<g>
	<polygon fill="#E29B48" points="74.375,209.243 12.699,209.243 43.537,171.743 74.375,134.243 105.213,171.743 136.051,209.243 	
		"/>
	<polygon fill="#DA9039" points="74.375,134.243 90.009,209.243 136.051,209.243 	"/>
</g>
<g>
	<polygon fill="#E29B48" points="249.731,209.243 207.199,209.243 228.465,185.997 249.731,162.75 270.998,185.997 292.264,209.243 
			"/>
	<polygon fill="#DA9039" points="249.731,162.75 260.513,209.243 292.264,209.243 	"/>
</g>
<circle fill="#F0ED7A" cx="183.375" cy="106.375" r="27.875"/>
<g opacity="0.5">
	<g>
		<g>
			<line fill="none" stroke="#FFFFFF" stroke-miterlimit="10" x1="299.546" y1="-0.043" x2="298.774" y2="1.243"/>
			
				<line fill="none" stroke="#FFFFFF" stroke-miterlimit="10" stroke-dasharray="3.0057,3.0057" x1="297.228" y1="3.82" x2="1.091" y2="497.381"/>
			<line fill="none" stroke="#FFFFFF" stroke-miterlimit="10" x1="0.318" y1="498.67" x2="-0.454" y2="499.957"/>
		</g>
	</g>
	<g>
		<g>
			<line fill="none" stroke="#FFFFFF" stroke-miterlimit="10" x1="248.513" y1="-30.997" x2="247.741" y2="-29.711"/>
			
				<line fill="none" stroke="#FFFFFF" stroke-miterlimit="10" stroke-dasharray="3.0057,3.0057" x1="246.194" y1="-27.133" x2="-49.942" y2="466.428"/>
			<line fill="none" stroke="#FFFFFF" stroke-miterlimit="10" x1="-50.715" y1="467.717" x2="-51.487" y2="469.004"/>
		</g>
	</g>
	<g>
		<g>
			<line fill="none" stroke="#FFFFFF" stroke-miterlimit="10" x1="203.189" y1="-74.791" x2="202.418" y2="-73.505"/>
			
				<line fill="none" stroke="#FFFFFF" stroke-miterlimit="10" stroke-dasharray="3.0057,3.0057" x1="200.871" y1="-70.927" x2="-95.266" y2="422.635"/>
			<line fill="none" stroke="#FFFFFF" stroke-miterlimit="10" x1="-96.039" y1="423.924" x2="-96.811" y2="425.209"/>
		</g>
	</g>
	<g>
		<g>
			<line fill="none" stroke="#FFFFFF" stroke-miterlimit="10" x1="164.1" y1="-129.645" x2="163.328" y2="-128.358"/>
			
				<line fill="none" stroke="#FFFFFF" stroke-miterlimit="10" stroke-dasharray="3.0057,3.0057" x1="161.781" y1="-125.781" x2="-134.355" y2="367.781"/>
			<line fill="none" stroke="#FFFFFF" stroke-miterlimit="10" x1="-135.128" y1="369.07" x2="-135.9" y2="370.355"/>
		</g>
	</g>
	<g>
		<g>
			<line fill="none" stroke="#FFFFFF" stroke-miterlimit="10" x1="356.237" y1="31.905" x2="355.466" y2="33.191"/>
			
				<line fill="none" stroke="#FFFFFF" stroke-miterlimit="10" stroke-dasharray="3.0057,3.0057" x1="353.919" y1="35.769" x2="57.782" y2="529.33"/>
			<line fill="none" stroke="#FFFFFF" stroke-miterlimit="10" x1="57.009" y1="530.619" x2="56.237" y2="531.904"/>
		</g>
	</g>
	<g>
		<g>
			<line fill="none" stroke="#FFFFFF" stroke-miterlimit="10" x1="467.885" y1="93.16" x2="467.113" y2="94.446"/>
			
				<line fill="none" stroke="#FFFFFF" stroke-miterlimit="10" stroke-dasharray="3.0057,3.0057" x1="465.566" y1="97.023" x2="169.43" y2="590.584"/>
			<line fill="none" stroke="#FFFFFF" stroke-miterlimit="10" x1="168.656" y1="591.873" x2="167.885" y2="593.16"/>
		</g>
	</g>
	<g>
		<g>
			<line fill="none" stroke="#FFFFFF" stroke-miterlimit="10" x1="427.256" y1="34.65" x2="426.484" y2="35.936"/>
			
				<line fill="none" stroke="#FFFFFF" stroke-miterlimit="10" stroke-dasharray="3.0057,3.0057" x1="424.938" y1="38.514" x2="128.801" y2="532.074"/>
			<line fill="none" stroke="#FFFFFF" stroke-miterlimit="10" x1="128.028" y1="533.363" x2="127.256" y2="534.65"/>
		</g>
	</g>
</g>
<g opacity="0.5">
	<g>
		<g>
			<line fill="none" stroke="#FFFFFF" stroke-miterlimit="10" x1="0.455" y1="-0.043" x2="1.227" y2="1.243"/>
			
				<line fill="none" stroke="#FFFFFF" stroke-miterlimit="10" stroke-dasharray="3.0057,3.0057" x1="2.773" y1="3.82" x2="298.91" y2="497.381"/>
			<line fill="none" stroke="#FFFFFF" stroke-miterlimit="10" x1="299.684" y1="498.67" x2="300.455" y2="499.957"/>
		</g>
	</g>
	<g>
		<g>
			<line fill="none" stroke="#FFFFFF" stroke-miterlimit="10" x1="51.488" y1="-30.997" x2="52.26" y2="-29.711"/>
			
				<line fill="none" stroke="#FFFFFF" stroke-miterlimit="10" stroke-dasharray="3.0057,3.0057" x1="53.807" y1="-27.133" x2="349.943" y2="466.428"/>
			<line fill="none" stroke="#FFFFFF" stroke-miterlimit="10" x1="350.717" y1="467.717" x2="351.488" y2="469.004"/>
		</g>
	</g>
	<g>
		<g>
			<line fill="none" stroke="#FFFFFF" stroke-miterlimit="10" x1="96.812" y1="-74.791" x2="97.583" y2="-73.505"/>
			
				<line fill="none" stroke="#FFFFFF" stroke-miterlimit="10" stroke-dasharray="3.0057,3.0057" x1="99.13" y1="-70.927" x2="395.267" y2="422.635"/>
			<line fill="none" stroke="#FFFFFF" stroke-miterlimit="10" x1="396.04" y1="423.924" x2="396.812" y2="425.209"/>
		</g>
	</g>
	<g>
		<g>
			<line fill="none" stroke="#FFFFFF" stroke-miterlimit="10" x1="135.901" y1="-129.645" x2="136.673" y2="-128.358"/>
			
				<line fill="none" stroke="#FFFFFF" stroke-miterlimit="10" stroke-dasharray="3.0057,3.0057" x1="138.22" y1="-125.781" x2="434.356" y2="367.781"/>
			<line fill="none" stroke="#FFFFFF" stroke-miterlimit="10" x1="435.13" y1="369.07" x2="435.901" y2="370.355"/>
		</g>
	</g>
	<g>
		<g>
			<line fill="none" stroke="#FFFFFF" stroke-miterlimit="10" x1="-56.236" y1="31.905" x2="-55.464" y2="33.191"/>
			
				<line fill="none" stroke="#FFFFFF" stroke-miterlimit="10" stroke-dasharray="3.0057,3.0057" x1="-53.918" y1="35.769" x2="242.219" y2="529.33"/>
			<line fill="none" stroke="#FFFFFF" stroke-miterlimit="10" x1="242.992" y1="530.619" x2="243.764" y2="531.904"/>
		</g>
	</g>
	<g>
		<g>
			<line fill="none" stroke="#FFFFFF" stroke-miterlimit="10" x1="-167.884" y1="93.16" x2="-167.112" y2="94.446"/>
			
				<line fill="none" stroke="#FFFFFF" stroke-miterlimit="10" stroke-dasharray="3.0057,3.0057" x1="-165.565" y1="97.023" x2="130.571" y2="590.584"/>
			<line fill="none" stroke="#FFFFFF" stroke-miterlimit="10" x1="131.345" y1="591.873" x2="132.116" y2="593.16"/>
		</g>
	</g>
	<g>
		<g>
			<line fill="none" stroke="#FFFFFF" stroke-miterlimit="10" x1="-127.255" y1="34.65" x2="-126.483" y2="35.936"/>
			
				<line fill="none" stroke="#FFFFFF" stroke-miterlimit="10" stroke-dasharray="3.0057,3.0057" x1="-124.937" y1="38.514" x2="171.2" y2="532.074"/>
			<line fill="none" stroke="#FFFFFF" stroke-miterlimit="10" x1="171.974" y1="533.363" x2="172.745" y2="534.65"/>
		</g>
	</g>
</g>
</svg>
