<?xml version="1.0" encoding="utf-8"?>
<!-- Generator: Adobe Illustrator 16.0.0, SVG Export Plug-In . SVG Version: 6.00 Build 0)  -->
<!DOCTYPE svg PUBLIC "-//W3C//DTD SVG 1.1//EN" "http://www.w3.org/Graphics/SVG/1.1/DTD/svg11.dtd">
<svg version="1.1" id="Layer_1" xmlns="http://www.w3.org/2000/svg" xmlns:xlink="http://www.w3.org/1999/xlink" x="0px" y="0px"
	 width="300px" height="500px" viewBox="0 0 300 500" enable-background="new 0 0 300 500" xml:space="preserve">
<rect x="0" fill="#D89999" width="300" height="500"/>
<g opacity="0.8">
	<g>
		<g>
			<line fill="none" stroke="#FFFFFF" stroke-miterlimit="10" x1="300" y1="0" x2="299.229" y2="1.286"/>
			
				<line fill="none" stroke="#FFFFFF" stroke-miterlimit="10" stroke-dasharray="3.0057,3.0057" x1="297.682" y1="3.864" x2="1.545" y2="497.425"/>
			<line fill="none" stroke="#FFFFFF" stroke-miterlimit="10" x1="0.772" y1="498.714" x2="0" y2="500"/>
		</g>
	</g>
	<g>
		<g>
			<line fill="none" stroke="#FFFFFF" stroke-miterlimit="10" x1="248.967" y1="-30.954" x2="248.196" y2="-29.667"/>
			
				<line fill="none" stroke="#FFFFFF" stroke-miterlimit="10" stroke-dasharray="3.0057,3.0057" x1="246.649" y1="-27.09" x2="-49.488" y2="466.472"/>
			<line fill="none" stroke="#FFFFFF" stroke-miterlimit="10" x1="-50.261" y1="467.761" x2="-51.033" y2="469.047"/>
		</g>
	</g>
	<g>
		<g>
			<line fill="none" stroke="#FFFFFF" stroke-miterlimit="10" x1="203.644" y1="-74.748" x2="202.872" y2="-73.461"/>
			
				<line fill="none" stroke="#FFFFFF" stroke-miterlimit="10" stroke-dasharray="3.0057,3.0057" x1="201.325" y1="-70.884" x2="-94.811" y2="422.678"/>
			<line fill="none" stroke="#FFFFFF" stroke-miterlimit="10" x1="-95.584" y1="423.967" x2="-96.356" y2="425.253"/>
		</g>
	</g>
	<g>
		<g>
			<line fill="none" stroke="#FFFFFF" stroke-miterlimit="10" x1="164.554" y1="-129.601" x2="163.782" y2="-128.315"/>
			
				<line fill="none" stroke="#FFFFFF" stroke-miterlimit="10" stroke-dasharray="3.0057,3.0057" x1="162.236" y1="-125.737" x2="-133.901" y2="367.824"/>
			<line fill="none" stroke="#FFFFFF" stroke-miterlimit="10" x1="-134.674" y1="369.113" x2="-135.446" y2="370.399"/>
		</g>
	</g>
	<g>
		<g>
			<line fill="none" stroke="#FFFFFF" stroke-miterlimit="10" x1="356.692" y1="31.948" x2="355.92" y2="33.234"/>
			
				<line fill="none" stroke="#FFFFFF" stroke-miterlimit="10" stroke-dasharray="3.0057,3.0057" x1="354.373" y1="35.812" x2="58.237" y2="529.373"/>
			<line fill="none" stroke="#FFFFFF" stroke-miterlimit="10" x1="57.464" y1="530.662" x2="56.692" y2="531.948"/>
		</g>
	</g>
	<g>
		<g>
			<line fill="none" stroke="#FFFFFF" stroke-miterlimit="10" x1="468.339" y1="93.203" x2="467.568" y2="94.489"/>
			
				<line fill="none" stroke="#FFFFFF" stroke-miterlimit="10" stroke-dasharray="3.0057,3.0057" x1="466.021" y1="97.067" x2="169.884" y2="590.628"/>
			<line fill="none" stroke="#FFFFFF" stroke-miterlimit="10" x1="169.111" y1="591.917" x2="168.339" y2="593.203"/>
		</g>
	</g>
	<g>
		<g>
			<line fill="none" stroke="#FFFFFF" stroke-miterlimit="10" x1="427.71" y1="34.693" x2="426.939" y2="35.979"/>
			
				<line fill="none" stroke="#FFFFFF" stroke-miterlimit="10" stroke-dasharray="3.0057,3.0057" x1="425.392" y1="38.557" x2="129.255" y2="532.118"/>
			<line fill="none" stroke="#FFFFFF" stroke-miterlimit="10" x1="128.482" y1="533.407" x2="127.71" y2="534.693"/>
		</g>
	</g>
</g>
<g opacity="0.8">
	<g>
		<g>
			<line fill="none" stroke="#FFFFFF" stroke-miterlimit="10" x1="0.909" y1="0" x2="1.681" y2="1.286"/>
			
				<line fill="none" stroke="#FFFFFF" stroke-miterlimit="10" stroke-dasharray="3.0057,3.0057" x1="3.228" y1="3.864" x2="299.365" y2="497.425"/>
			<line fill="none" stroke="#FFFFFF" stroke-miterlimit="10" x1="300.138" y1="498.714" x2="300.909" y2="500"/>
		</g>
	</g>
	<g>
		<g>
			<line fill="none" stroke="#FFFFFF" stroke-miterlimit="10" x1="51.943" y1="-30.954" x2="52.715" y2="-29.667"/>
			
				<line fill="none" stroke="#FFFFFF" stroke-miterlimit="10" stroke-dasharray="3.0057,3.0057" x1="54.261" y1="-27.09" x2="350.398" y2="466.472"/>
			<line fill="none" stroke="#FFFFFF" stroke-miterlimit="10" x1="351.171" y1="467.761" x2="351.943" y2="469.047"/>
		</g>
	</g>
	<g>
		<g>
			<line fill="none" stroke="#FFFFFF" stroke-miterlimit="10" x1="97.266" y1="-74.748" x2="98.038" y2="-73.461"/>
			
				<line fill="none" stroke="#FFFFFF" stroke-miterlimit="10" stroke-dasharray="3.0057,3.0057" x1="99.584" y1="-70.884" x2="395.721" y2="422.678"/>
			<line fill="none" stroke="#FFFFFF" stroke-miterlimit="10" x1="396.494" y1="423.967" x2="397.266" y2="425.253"/>
		</g>
	</g>
	<g>
		<g>
			<line fill="none" stroke="#FFFFFF" stroke-miterlimit="10" x1="136.356" y1="-129.601" x2="137.128" y2="-128.315"/>
			
				<line fill="none" stroke="#FFFFFF" stroke-miterlimit="10" stroke-dasharray="3.0057,3.0057" x1="138.674" y1="-125.737" x2="434.811" y2="367.824"/>
			<line fill="none" stroke="#FFFFFF" stroke-miterlimit="10" x1="435.584" y1="369.113" x2="436.356" y2="370.399"/>
		</g>
	</g>
	<g>
		<g>
			<line fill="none" stroke="#FFFFFF" stroke-miterlimit="10" x1="-55.782" y1="31.948" x2="-55.01" y2="33.234"/>
			
				<line fill="none" stroke="#FFFFFF" stroke-miterlimit="10" stroke-dasharray="3.0057,3.0057" x1="-53.464" y1="35.812" x2="242.673" y2="529.373"/>
			<line fill="none" stroke="#FFFFFF" stroke-miterlimit="10" x1="243.447" y1="530.662" x2="244.218" y2="531.948"/>
		</g>
	</g>
	<g>
		<g>
			<line fill="none" stroke="#FFFFFF" stroke-miterlimit="10" x1="-167.429" y1="93.203" x2="-166.657" y2="94.489"/>
			
				<line fill="none" stroke="#FFFFFF" stroke-miterlimit="10" stroke-dasharray="3.0057,3.0057" x1="-165.111" y1="97.067" x2="131.026" y2="590.628"/>
			<line fill="none" stroke="#FFFFFF" stroke-miterlimit="10" x1="131.799" y1="591.917" x2="132.571" y2="593.203"/>
		</g>
	</g>
	<g>
		<g>
			<line fill="none" stroke="#FFFFFF" stroke-miterlimit="10" x1="-126.801" y1="34.693" x2="-126.029" y2="35.979"/>
			
				<line fill="none" stroke="#FFFFFF" stroke-miterlimit="10" stroke-dasharray="3.0057,3.0057" x1="-124.482" y1="38.557" x2="171.655" y2="532.118"/>
			<line fill="none" stroke="#FFFFFF" stroke-miterlimit="10" x1="172.428" y1="533.407" x2="173.199" y2="534.693"/>
		</g>
	</g>
</g>
</svg>
