<?xml version="1.0" encoding="utf-8"?>
<!-- Generator: Adobe Illustrator 16.0.0, SVG Export Plug-In . SVG Version: 6.00 Build 0)  -->
<!DOCTYPE svg PUBLIC "-//W3C//DTD SVG 1.1//EN" "http://www.w3.org/Graphics/SVG/1.1/DTD/svg11.dtd">
<svg version="1.1" id="Layer_1" xmlns="http://www.w3.org/2000/svg" xmlns:xlink="http://www.w3.org/1999/xlink" x="0px" y="0px"
	 width="300px" height="500px" viewBox="0 0 300 500" enable-background="new 0 0 300 500" xml:space="preserve">
<g>
	<rect x="0" fill="#8ACFE6" width="300" height="500"/>
	<rect x="0" y="209.243" fill="#539C51" width="300" height="290.757"/>
	<g>
		<g>
			<rect x="28.751" y="175.729" fill="#713917" width="21.081" height="33.514"/>
			<polygon fill="#34B44A" points="39.292,198.203 5.99,198.203 22.641,160.703 39.292,123.203 55.943,160.703 72.593,198.203 			
				"/>
			<polyline fill="#87C54D" points="39.292,123.203 72.593,198.203 44.349,198.203 			"/>
			<rect x="43.566" y="198.203" fill="#CD924C" width="6.267" height="11.041"/>
		</g>
		<g>
			<rect x="80" y="175.729" fill="#713917" width="21.081" height="33.514"/>
			<polygon fill="#34B44A" points="90.541,198.203 57.239,198.203 73.89,160.703 90.541,123.203 107.192,160.703 123.842,198.203 
							"/>
			<polyline fill="#87C54B" points="90.541,123.203 123.842,198.203 95.598,198.203 			"/>
			<rect x="94.815" y="198.203" fill="#CD924C" width="6.267" height="11.041"/>
		</g>
		<g>
			<rect x="250.168" y="175.729" fill="#713917" width="21.081" height="33.514"/>
			<polygon fill="#34B44A" points="260.708,198.203 294.01,198.203 277.358,160.703 260.708,123.203 244.058,160.703 
				227.407,198.203 			"/>
			<polyline fill="#87C54D" points="260.708,123.203 227.407,198.203 255.651,198.203 			"/>
			<rect x="250.168" y="198.203" fill="#CD924C" width="6.267" height="11.041"/>
		</g>
		<g>
			<rect x="198.919" y="175.729" fill="#713917" width="21.081" height="33.514"/>
			<polygon fill="#34B44A" points="209.46,198.203 242.761,198.203 226.11,160.703 209.46,123.203 192.808,160.703 176.157,198.203 
							"/>
			<polyline fill="#87C54B" points="209.46,123.203 176.157,198.203 204.402,198.203 			"/>
			<rect x="198.919" y="198.203" fill="#CD924C" width="6.266" height="11.041"/>
		</g>
	</g>
</g>
<g opacity="0.5">
	<g>
		<g>
			<line fill="none" stroke="#FFFFFF" stroke-miterlimit="10" x1="300.226" y1="2.116" x2="299.454" y2="3.402"/>
			
				<line fill="none" stroke="#FFFFFF" stroke-miterlimit="10" stroke-dasharray="3.0057,3.0057" x1="297.907" y1="5.979" x2="1.771" y2="499.541"/>
			<line fill="none" stroke="#FFFFFF" stroke-miterlimit="10" x1="0.998" y1="500.83" x2="0.226" y2="502.115"/>
		</g>
	</g>
	<g>
		<g>
			<line fill="none" stroke="#FFFFFF" stroke-miterlimit="10" x1="249.193" y1="-28.838" x2="248.421" y2="-27.552"/>
			
				<line fill="none" stroke="#FFFFFF" stroke-miterlimit="10" stroke-dasharray="3.0057,3.0057" x1="246.874" y1="-24.974" x2="-49.262" y2="468.588"/>
			<line fill="none" stroke="#FFFFFF" stroke-miterlimit="10" x1="-50.035" y1="469.877" x2="-50.807" y2="471.162"/>
		</g>
	</g>
	<g>
		<g>
			<line fill="none" stroke="#FFFFFF" stroke-miterlimit="10" x1="203.869" y1="-72.632" x2="203.098" y2="-71.346"/>
			
				<line fill="none" stroke="#FFFFFF" stroke-miterlimit="10" stroke-dasharray="3.0057,3.0057" x1="201.551" y1="-68.768" x2="-94.586" y2="424.793"/>
			<line fill="none" stroke="#FFFFFF" stroke-miterlimit="10" x1="-95.359" y1="426.082" x2="-96.131" y2="427.369"/>
		</g>
	</g>
	<g>
		<g>
			<line fill="none" stroke="#FFFFFF" stroke-miterlimit="10" x1="164.78" y1="-127.485" x2="164.008" y2="-126.199"/>
			
				<line fill="none" stroke="#FFFFFF" stroke-miterlimit="10" stroke-dasharray="3.0057,3.0057" x1="162.461" y1="-123.622" x2="-133.676" y2="369.939"/>
			<line fill="none" stroke="#FFFFFF" stroke-miterlimit="10" x1="-134.448" y1="371.229" x2="-135.22" y2="372.516"/>
		</g>
	</g>
	<g>
		<g>
			<line fill="none" stroke="#FFFFFF" stroke-miterlimit="10" x1="356.917" y1="34.064" x2="356.146" y2="35.35"/>
			
				<line fill="none" stroke="#FFFFFF" stroke-miterlimit="10" stroke-dasharray="3.0057,3.0057" x1="354.599" y1="37.928" x2="58.462" y2="531.488"/>
			<line fill="none" stroke="#FFFFFF" stroke-miterlimit="10" x1="57.689" y1="532.777" x2="56.917" y2="534.064"/>
		</g>
	</g>
	<g>
		<g>
			<line fill="none" stroke="#FFFFFF" stroke-miterlimit="10" x1="468.565" y1="95.319" x2="467.793" y2="96.605"/>
			
				<line fill="none" stroke="#FFFFFF" stroke-miterlimit="10" stroke-dasharray="3.0057,3.0057" x1="466.246" y1="99.183" x2="170.11" y2="592.744"/>
			<line fill="none" stroke="#FFFFFF" stroke-miterlimit="10" x1="169.336" y1="594.033" x2="168.565" y2="595.318"/>
		</g>
	</g>
	<g>
		<g>
			<line fill="none" stroke="#FFFFFF" stroke-miterlimit="10" x1="427.936" y1="36.809" x2="427.164" y2="38.095"/>
			
				<line fill="none" stroke="#FFFFFF" stroke-miterlimit="10" stroke-dasharray="3.0057,3.0057" x1="425.617" y1="40.673" x2="129.481" y2="534.234"/>
			<line fill="none" stroke="#FFFFFF" stroke-miterlimit="10" x1="128.708" y1="535.523" x2="127.936" y2="536.809"/>
		</g>
	</g>
</g>
<g opacity="0.5">
	<g>
		<g>
			<line fill="none" stroke="#FFFFFF" stroke-miterlimit="10" x1="1.135" y1="2.116" x2="1.907" y2="3.402"/>
			
				<line fill="none" stroke="#FFFFFF" stroke-miterlimit="10" stroke-dasharray="3.0057,3.0057" x1="3.453" y1="5.979" x2="299.59" y2="499.541"/>
			<line fill="none" stroke="#FFFFFF" stroke-miterlimit="10" x1="300.364" y1="500.83" x2="301.135" y2="502.115"/>
		</g>
	</g>
	<g>
		<g>
			<line fill="none" stroke="#FFFFFF" stroke-miterlimit="10" x1="52.168" y1="-28.838" x2="52.94" y2="-27.552"/>
			
				<line fill="none" stroke="#FFFFFF" stroke-miterlimit="10" stroke-dasharray="3.0057,3.0057" x1="54.487" y1="-24.974" x2="350.623" y2="468.588"/>
			<line fill="none" stroke="#FFFFFF" stroke-miterlimit="10" x1="351.397" y1="469.877" x2="352.168" y2="471.162"/>
		</g>
	</g>
	<g>
		<g>
			<line fill="none" stroke="#FFFFFF" stroke-miterlimit="10" x1="97.491" y1="-72.632" x2="98.263" y2="-71.346"/>
			
				<line fill="none" stroke="#FFFFFF" stroke-miterlimit="10" stroke-dasharray="3.0057,3.0057" x1="99.81" y1="-68.768" x2="395.947" y2="424.793"/>
			<line fill="none" stroke="#FFFFFF" stroke-miterlimit="10" x1="396.72" y1="426.082" x2="397.491" y2="427.369"/>
		</g>
	</g>
	<g>
		<g>
			<line fill="none" stroke="#FFFFFF" stroke-miterlimit="10" x1="136.581" y1="-127.485" x2="137.353" y2="-126.199"/>
			
				<line fill="none" stroke="#FFFFFF" stroke-miterlimit="10" stroke-dasharray="3.0057,3.0057" x1="138.9" y1="-123.622" x2="435.036" y2="369.939"/>
			<line fill="none" stroke="#FFFFFF" stroke-miterlimit="10" x1="435.81" y1="371.229" x2="436.581" y2="372.516"/>
		</g>
	</g>
	<g>
		<g>
			<line fill="none" stroke="#FFFFFF" stroke-miterlimit="10" x1="-55.556" y1="34.064" x2="-54.784" y2="35.35"/>
			
				<line fill="none" stroke="#FFFFFF" stroke-miterlimit="10" stroke-dasharray="3.0057,3.0057" x1="-53.238" y1="37.928" x2="242.899" y2="531.488"/>
			<line fill="none" stroke="#FFFFFF" stroke-miterlimit="10" x1="243.672" y1="532.777" x2="244.444" y2="534.064"/>
		</g>
	</g>
	<g>
		<g>
			<line fill="none" stroke="#FFFFFF" stroke-miterlimit="10" x1="-167.204" y1="95.319" x2="-166.432" y2="96.605"/>
			
				<line fill="none" stroke="#FFFFFF" stroke-miterlimit="10" stroke-dasharray="3.0057,3.0057" x1="-164.885" y1="99.183" x2="131.251" y2="592.744"/>
			<line fill="none" stroke="#FFFFFF" stroke-miterlimit="10" x1="132.024" y1="594.033" x2="132.796" y2="595.318"/>
		</g>
	</g>
	<g>
		<g>
			<line fill="none" stroke="#FFFFFF" stroke-miterlimit="10" x1="-126.575" y1="36.809" x2="-125.803" y2="38.095"/>
			
				<line fill="none" stroke="#FFFFFF" stroke-miterlimit="10" stroke-dasharray="3.0057,3.0057" x1="-124.257" y1="40.673" x2="171.88" y2="534.234"/>
			<line fill="none" stroke="#FFFFFF" stroke-miterlimit="10" x1="172.654" y1="535.523" x2="173.425" y2="536.809"/>
		</g>
	</g>
</g>
</svg>
